<?xml version="1.0" encoding="UTF-8"?>
<svg id="Layer_1" data-name="Layer 1" xmlns="http://www.w3.org/2000/svg" viewBox="0 0 1000 1000">
  <defs>
    <style>
      .cls-1 {
        fill: red;
        stroke-width: 0px;
      }
    </style>
  </defs>
  <path class="cls-1" d="M901.09,870.64l-28.94,29.74-27.19,31.44-30.69,28.03-13.66,10.54-23.92,17.58-22.41,2.03-15.6-4.96-24.39-16.93-34.89-27.14-38.53-40.9-24.53-27.28-36.83-42.65-34.98-34.04-20.89-13.52-17.35-6.67-17.21,3.69-27.37,17.63-15.32,15.74-27.28,24.53-71.35,83.81-28.98,26.29-15.32,15.74-27.33,21.08-25.86,2.08-29.54-15.13-36.73-35.75-43.77-46-26.28-28.99-41.89-33.95-26.28-28.98-8.84-15.41-17.63-27.37-2.08-25.86,20.33-27.89,27.19-31.44,25.48-29.69,73.33-64.86,23.79-27.94,10.21-10.49,16.83-31.3-2.08-25.86-19.29-22.17-115.44-112.34-26.28-28.98-15.74-15.32-19.43-32.53-5.53-25.81,18.63-26.14,13.57-17.44,30.69-28.03,29.03-22.83,28.99-26.28,39.05-47.13,32.43-26.33,29.08-19.38,25.86-2.08,26.14,18.63,43.73,42.55,54.32,59.67,61.12,52.67,24.39,16.93,15.65,8.42,20.66-3.73,22.22-15.84,25.58-22.78,23.78-27.94,66.29-75.12,42.55-43.73,25.63-19.33,20.61-7.19,15.55,1.52,19.19,15.27,13.95,10.17,24.54,27.28,38.62,47.8,27.99,27.23,43.63,35.65,40.23,39.15,15.84,22.22,5.43,18.91-4.92,19.05-16.93,24.39-57.87,59.47-28.98,26.28-42.65,36.82-22.08,26.19-13.62,13.99-13.48,24.35-4.92,19.05,5.39,15.46,15.83,22.22,41.98,40.85,96.06,83.26,26.29,28.98,12.29,15.36,19.33,25.63,2.13,29.31-15.08,33-28.94,29.74-44.3,42.02ZM192.47,164.03l12.39,22.27,1.51-15.55-5.29-8.55-8.6,1.84ZM116.06,256.55l-.05-3.45-8.65-1.61.04,3.45,5.25,5.11,3.4-3.5ZM160.69,238.68l-.09-6.9-6.9.09-3.4,3.5,1.75,1.7.05,3.45,5.2,1.66,3.4-3.5ZM186.32,219.35l-.05-3.45-6.9.09-1.7,1.75.05,3.45,6.9-.09,1.7-1.75ZM172.79,240.24l.14,10.36,6.99,6.81,44.63-17.87-43.26-8.04-8.51,8.75ZM150.9,280.24l3.31-10.4-1.75-1.7-5.2-1.65-6.81,6.99.14,10.36,10.3-3.59ZM225.65,192.92l.09,6.9,6.95,3.35,6.81-7-8.7-5.06-5.16,1.8ZM231.23,222.19l-8.75-8.51-8.65-1.61,1.94,15.51,12.1,1.56,3.35-6.95ZM189.15,300.43l17.31,3.22-8.8-11.96-13.94-10.16-1.84-8.61-12.2-8.46,8.89,18.86,3.45-.04,7.14,17.16ZM168.4,297.26l-5.25-5.11-10.31,3.59,1.84,8.61,5.2,1.66,8.51-8.75ZM211.04,260.43l1.89,12.06,13.81-.19-1.52,15.55,10.17-13.95-24.35-13.48ZM246.97,237.51l-1.61,8.65,31.15,6.48-.05-3.45-24.35-13.48-5.15,1.8ZM259.78,290.84l10.12-17.4-10.59-17.11-3.45.05-1.75-1.7-8.65-1.61-5.06,8.7,19.38,29.08ZM185.98,321.18l15.7,11.87-3.59-10.31-5.25-5.11-6.86,3.55ZM286.78,245.6l-1.47,19,8.88,18.87,8.61-1.84,6.67-17.35-10.59-17.11-12.1-1.56ZM220.44,317.26l-3.45.05-1.65,5.2,5.25,5.11,6.86-3.54-7-6.81ZM214.2,365.67l-8.7-5.06,13.48-24.34-27.51,7.28,10.63,20.56,12.1,1.56ZM309.09,236.66l15.93,29.13,3.69,17.21-15.32,15.74-48.22,7.56-3.31,10.4,7.09,13.71,22.36-5.48-1.84-8.6,8.56-5.29,15.74,15.32,18.96-1.98,3.36-6.95-3.54-6.86-6.86,3.55-5.25-5.11,16.83-31.3-1.84-8.6,8.42-15.65-34.75-16.79ZM256.52,304.69l-6.9.09-1.61,8.65,5.25,5.11,3.27-13.85ZM250.13,342.75l8.6-1.84,3.5,3.4,29.31-2.13-.09-6.9-48.36-2.79-5.01,12.15,3.5,3.4,6.9-.09,1.66-5.2ZM248.85,375.55l-3.54-6.86,1.61-8.65-8.7-5.06-10.36.14-18.67,22.69,3.5,3.4,31.06-.43,5.11-5.25ZM267.58,356.31l-1.56,12.1-8.56,5.3.1,6.9,6.9-.09,13.62-13.99-.19-13.8-10.31,3.59ZM456.42,662.68l3.17-20.75,11.96-8.79-8.75-8.51-12.01,5.34,1.75,1.7-6.95-3.36-1.94-15.51,5.15-1.79,3.26-13.85-6.95-3.36-8.56,5.3-3.5-3.4,1.7-1.75-7-6.81,5.11-5.25-1.8-5.15,18.72-19.24,8.7,5.06,3.4-3.5-.09-6.9-5.2-1.65,3.4-3.5-1.89-12.05-8.6,1.84-8.51,8.75-5.25-5.11-.09-6.9,8.56-5.3-.14-10.35-8.75-8.51,6.76-10.45-5.06,8.7,17.49,17.02,3.4-3.5-1.84-8.6-7-6.81-.24-17.26,10.17-13.95,10.35-.14,10.26-7.04,8.65,1.61.19,13.8-1.7,1.75-3.45.05.05,3.45,1.75,1.7,8.6-1.84,5.3,8.56-16.74,38.2,5.15-1.8-1.7,1.75-1.66,5.2,8.6-1.84,1.7-1.75-.05-3.45-1.75-1.7-3.45.05,17.06-14.04,6.9-.09,19.15,11.82,1.98,18.96,12.1,1.56,1.65-5.2,6.9-.09,3.5,3.4,15.46-5.39-1.84-8.6-62.59-33.67-3.73-20.66,13.43-27.8-3.59-10.3-12.1-1.56-10.26,7.04-16.03-36.03-17.11,10.59-15.74-15.32-3.45.05,1.65-5.2,12.01-5.34,6.71-13.9-1.75-1.7-.05-3.45-3.5-3.4,13.76-3.64-8.7-5.06-8.55,5.29-10.54-13.66-17.54-20.47,1.38-25.91-8.75-8.51,6.76-10.45-10.4-3.31-8.56,5.29-3.45.05-7-6.81-3.64-13.76-6.76,10.45,5.48,22.36-30.92,10.78,5.25,5.11,34.56,2.98,7,6.81-69.07-2.51-3.31,10.4-18.77,15.79,9.07,32.67,22.41-2.03,10.45,6.76-30.92,10.78,1.84,8.61-10.12,17.39-29.12,15.93-8.65-1.61-13.99-13.62,1.61-8.65,8.6-1.84,5.11-5.25-.09-6.9-24.11,3.78-.24-17.26-1.75-1.7-12.06,1.89-5.11,5.25-6.9.1-3.36,6.95,56.02,57.92,5.11-5.25,13.76-3.64-3.31,10.4,10.83,34.37,10.26-7.05-7.23-24.06,3.35-6.95-1.94-15.51,18.68-22.69,15.55,1.51,6.76-10.45,3.5,3.4,17.07-14.04,4.96-15.6-3.59-10.31-8.65-1.61-1.75-1.7,11.72-26.05,15.46-5.39,7.09,13.71-5.06,8.7-6.9.09-3.4,3.5,55.31,6.15,1.7-1.75,3.55,6.85-6.86,3.55-5.06,8.7,1.75,1.7-6.81,7,.09,6.9-3.4,3.5-27.61.38-15.36,12.29,8.75,8.51,3.64,13.76,8.7,5.06,8.6-1.84,6.81-7-.05-3.45,8.65,1.61,6.81-7-3.69-17.21,8.56-5.3,1.66-5.2,10.63,20.56-1.47,19.01-11.92,12.24-34.51.47-6.76,10.45,10.54,13.66,8.65,1.61-13.76,3.64-15.74-15.32-10.31,3.59-6.76,10.45-10.31,3.6-3.55-6.86,11.73-26.05-31.01,3.87-1.8-5.16-6.9.09-1.66,5.2,6.95,3.36,5.34,12.01-1.61,8.65,3.55,6.86,5.2,1.65-1.32,29.36,28.89-33.19,25.95,4.83-3.4,3.5.04,3.45-12.1-1.56-17.02,17.49,7.14,17.16-1.66,5.2-10.26,7.04-3.31,10.4,13.85,3.26,11.92-12.24,3.45-.05,7.04,10.26-1.56,12.1-13.71,7.09,8.7,5.06,12.01-5.34,5.34,12.01-8.47,12.2-1.75-1.7-5.15,1.79-10.4-3.31-10.31,3.59-8.75-8.51-8.56,5.29,3.55,6.86,8.7,5.06-6.48,31.16-12.1-1.56-5.01,12.15,25.72-12.43,1.51-15.55,5.16-1.8-1.84-8.61-6.95-3.36,6.81-6.99,10.4,3.31,8.56-5.3-10.16,13.95,2.03,22.41,5.25,5.11,5.11-5.25,1.56-12.1,3.4-3.5,8.7,5.06,5.11-5.25-1.84-8.6,5.15-1.8,5.2,1.65,1.94,15.51-5.15,1.8-8.42,15.65-22.31,8.93-6.76,10.45,18.91-5.43,12.29,15.37,20.66-3.73,3.36-6.95,8.6-1.84.09,6.9,6.9-.09,6.81-7ZM342.75,300.06l-1.66,5.2,5.25,5.11,3.45-.05-3.59-10.31-3.45.05ZM290.36,381.89l1.8,5.15,5.2,1.66,6.81-7-.09-6.9-5.2-1.65-6.86,3.54-1.65,5.2ZM392.34,392.58l6.95,3.36,6.85-3.55,1.66-5.2-8.7-5.06-8.56,5.3,1.79,5.15ZM588.5,222.5l-5.06,8.7,1.84,8.61,18.82-12.34-3.55-6.85-12.05,1.89ZM610.77,210.11l-1.65,5.2,5.25,5.11,3.45-.05,3.4-3.5-6.99-6.81-3.45.04ZM683.13,454.21l3.4-3.5,12.06-1.89,5.11-5.25-32.81-1.28-14.23-30.87-6.34,41.51-6.81,7-7.42-37.87,10.07-20.85-1.89-12.06-24.49-23.83-32.67,9.07.33,24.16-6.76,10.45-10.78-30.92-26.05-11.73-19.38-29.07,5.11-5.25-1.8-5.15,5.06-8.7,18.96-1.98-1.61,8.65,7,6.81,8.6-1.84-3.78-24.12,18.96-1.98-1.89-12.06-5.25-5.11-.1-6.9-8.7-5.06-5.06,8.7-6.86,3.54-22.27,12.39-8.32,22.55-17.11,10.59,5.25,5.11,3.64,13.76-1.7,1.75-8.7-5.06-34.37,10.83,7.04,10.26,48.27-4.11,17.45,13.57,3.73,20.66,12.2,8.47-3.4,3.5,14.04,17.07,15.6,4.96,10.31-3.59,1.61-8.65,1.7-1.75,27.8,13.43,3.64,13.76-13.67,10.54-6.99-6.81-.09-6.9-6.95-3.35-6.24,48.41,13.99,13.62,3.4-3.5,3.45-.05,22.18-19.29,13.85,3.26,22.31-8.94,5.25,5.11,3.45-.05,3.31-10.4-5.29-8.55,1.7-1.75-.05-3.45ZM282.87,592.56l22.65,15.23,3.45-.05,1.7-1.75,21.08,27.33,5.2,1.66,5.15-1.8-19.66-49.78,3.31-10.4-12.2-8.46-11.92,12.24,6.95,3.35,6.85-3.55,1.75,1.7-13.71,7.09-1.75-1.7-3.4,3.5-.05-3.45-1.7,1.75-8.65-1.61-5.25-5.11,1.65-5.2-5.2-1.65-5.16,1.8-6.57,24.25,8.65,1.61,6.81-6.99ZM672.42,174.76l.05,3.45,3.5,3.4,5.2,1.65,1.7-1.75-.05-3.45-1.75-1.7-8.65-1.61ZM590.72,258.71l.47,34.51,5.25,5.11,22.27-12.39-1.84-8.6-24.44-20.38-1.7,1.75ZM630.15,239.19l-22.32,8.93-3.26,13.85,8.51-8.75,10.5,10.21,13.85,3.26-7.28-27.52ZM504.33,378.98l-8.7-5.06-17.11,10.59,1.79,5.15,6.95,3.36,15.41-8.84,1.65-5.2ZM703.29,160.53l1.8,5.16,8.6-1.84,8.51-8.75,6.95,3.35,8.6-1.84-19.15-11.82-15.32,15.74ZM339.23,548.64l12.06-1.89-5.29-8.55-6.95-3.36.19,13.81ZM683.24,209.13l-5.29-8.56-10.35.14.04,3.45,8.8,11.96,6.81-6.99ZM233.84,667.44l11.87-15.69-8.65-1.61-1.7,1.75-3.45.05-8.55,5.29,1.84,8.6,8.65,1.61ZM705.51,196.74l3.4-3.5-8.75-8.51-10.35.14,3.59,10.31,12.15,5.01-.04-3.45ZM657.48,218.11l-5.11,5.25.09,6.9,13.62-13.99-8.6,1.85ZM278.15,625.41l1.51-15.55-20.47,17.54,3.55,6.85,6.9-.09,8.51-8.75ZM133.42,770.63l-1.84-8.6-3.45.05-3.36,6.95,5.25,5.11,3.4-3.5ZM652.51,233.71l-11.87,15.69,17.11-10.59-5.25-5.11ZM331.15,588.45l20.57-10.64,6.71-13.9-10.45-6.76-13.66,10.54-3.17,20.75ZM620.97,325.61l-3.54-6.86-8.65-1.61-3.5-3.4-3.45.04-1.84-8.6-8.6,1.84-1.61,8.65,26.1,15.18,5.11-5.25ZM525.28,395.95l-8.6,1.84-5.11,5.25-6.95-3.36-6.86,3.54-6.67,17.35,6.95,3.36,6.81-7,26.09,15.18-2.17-32.76,5.16-1.8-.1-6.9-5.2-1.66-3.35,6.95ZM186.56,744.03l-1.84-8.61-13.76,3.64-3.35,6.95,1.79,5.15,6.9-.09,10.26-7.04ZM421.26,488.84l7.09,13.71-6.85,3.55-15.55-1.51,15.32-15.74ZM690.33,222.84l.05,3.45-17.16,7.14-3.17,20.75,39.2-36.78-18.91,5.43ZM229.02,693.39l12.24,11.92,6.9-.1,13.99,13.62,64.82-56.11,3.21-17.3-42.5,47.18-10.36.14-8.75-8.51,5.06-8.7-13.95-10.17-30.68,28.03ZM295.45,628.63l1.8,5.15,8.6-1.84,1.65-5.2-6.99-6.81-5.06,8.7ZM646.17,275.22l3.45-.05,6.81-6.99-.04-3.45-5.2-1.65-6.81,6.99,1.8,5.16ZM639.5,292.57l-10.45-6.76-5.11,5.25.09,6.9,5.2,1.66,3.55,6.85-6.62,20.8,5.39,15.46,3.45-.05,1.7-1.75,2.79-48.36ZM598.84,348.35l-1.8-5.15-5.2-1.66-6.85,3.55.04,3.45,7,6.81,3.45-.05,3.36-6.95ZM156.16,792.76l8.65,1.61,11.92-12.24-1.75-1.7-3.45.05-3.4,3.5-12.06,1.89.1,6.9ZM448.87,488.47l-6.76,10.45,6.76-10.45ZM734.87,198.07l-1.66,5.2,3.5,3.4,6.9-.09-.09-6.9-3.5-3.4-1.7,1.75-3.45.05ZM755.34,180.53l15.55,1.51,8.55-5.29-.04-3.45-3.5-3.4-20.57,10.64ZM292.47,663.19l6.95,3.36-.04-3.45-5.3-8.56-3.4,3.5,1.8,5.15ZM787.73,150.75l-1.61,8.65,6.9-.09,1.61-8.65-6.9.09ZM164.76,790.92l.05,3.45-1.75-1.7,1.7-1.75ZM156.49,816.92l-1.79-5.15-3.5-3.4-8.56,5.29,5.25,5.11,6.9-.09,1.7-1.75ZM735.15,218.78l-10.35.14-6.81,6.99,17.91,48.08,7.99-46.71-8.75-8.51ZM239.94,734.67l1.65-5.2-1.75-1.7-6.9.09.05,3.45-1.7,1.75,8.65,1.61ZM471.56,507.14l-13.71,7.09,10.59,17.12,1.75,1.7,6.81-7,2.84-44.91-13.66,10.54,5.38,15.46ZM662.01,297.44l-8.55,5.29,8.7,5.06,8.56-5.3-8.7-5.06ZM704.84,274.42l-17.26.24,12.2,8.46,16.92-24.39-12.05,1.89.19,13.81ZM701.1,379.75l-6.9.09-17.44-13.57-1.98-18.96-10.54-13.66,3.17-20.75-22.36,5.48,2.03,22.41,10.35-.14,5.29,8.56-15.32,15.74,1.98,18.96,8.7,5.06,5.11-5.25-3.55-6.86,5.11-5.25,6.9-.09,26.14,18.63,8.56-5.29,17.4,10.12,16.79-34.75-39.43,19.52ZM231.71,764.12l13.76-3.64,3.35-6.95-10.45-6.76-5.15,1.8-5.06,8.7,3.55,6.85ZM754.21,223.69l.09,6.9,3.45-.05,1.75,1.7,1.7-1.75-.05-3.45-6.95-3.36ZM561.3,505.92l13.9,6.71,8.79,11.96,13.86,3.26,8.55-5.29,3.64,13.76,3.45-.05,1.7-1.75-.09-6.9-5.3-8.56,1.7-1.75-15.6-4.97-3.54-6.86-6.9.09-1.75-1.7-1.7,1.75-17.35-6.67-7.04-10.26-.28-20.7-13.99-13.62-5.06,8.7-3.5-3.4-3.45.05-1.61,8.65-6.9.09-3.17,20.75,12.15,5.01,8.56-5.3-1.8-5.15,5.11-5.25,14.18,27.42-13.85-3.26,8.84,15.41,6.86-3.55,1.61-8.65ZM221.73,791.87l-.04-3.45-5.2-1.65-5.11,5.25.05,3.45,10.3-3.59ZM720.63,293.19l-8.7-5.06-27.32,21.08,17.39,10.12,17.12-10.59-.05-3.45,1.7-1.75-.14-10.35ZM339.46,691.89l-10.54-13.66-23.87,21.04,6.95,3.35,15.36-12.29,12.1,1.56ZM372.22,689.72l-3.73-20.66-22.46-1.42,22.78,25.58,3.4-3.5ZM473.92,553.71l1.56-12.1-3.45.05-5.06,8.7,6.95,3.36ZM747.87,265.2l-1.66,5.2,1.8,5.15,5.2,1.66,10.26-7.05,1.61-8.65-8.65-1.61-8.56,5.3ZM443.29,585.19l13.85,3.26,10.63,20.56,5.2,1.66,3.4-3.5,5.3,8.56,5.2,1.66,7.18,20.61,22.5,4.87-45.62-54.61,12.01-5.34,1.75,1.7,27.47-10.73-4.96,15.6,23.92-17.58-.05-3.45,12.01-5.34-53.66-11.35-10.49-10.21,1.94,15.51-3.4,3.5-1.61,8.65-32.57,15.98ZM271.33,758.4l6.95,3.36,15.41-8.84-.19-13.8-10.17,13.95-6.9.09-5.11,5.25ZM576.1,452.21l3.55,6.85,3.5,3.4,8.51-8.75-3.55-6.85-8.65-1.61-3.36,6.95ZM741.43,299.81l-8.7-5.06-3.45.04-3.4,3.5-1.37,25.91,1.75,1.7,3.45-.04,11.72-26.05ZM201.87,854.27l1.65-5.2-1.75-1.7-8.65-1.61.09,6.9,8.65,1.61ZM728.29,348.31l3.31-10.4-13.85-3.26-25.77,8.98,3.6,10.31,17.35,6.67,15.36-12.29ZM501.44,546.43l8.6-1.84,5.11-5.25-5.25-5.11-8.56,5.29.09,6.9ZM344.99,717.7l-.05-3.45-1.75-1.7-8.65-1.61-5.11,5.25,6.95,3.36,8.6-1.85ZM777.32,273.43l-3.35,6.95,6.99,6.81,3.4-3.5,1.56-12.1-8.6,1.84ZM627.58,430.8l-1.7,1.75-.05-3.45,1.75,1.7ZM673.73,397.38l1.7-1.75-5.2-1.65-8.51,8.75,12.06-1.89-.05-3.45ZM328.15,749l-8.56,5.3,6.99,6.81,13.85,3.26,13.67-10.54-24.11,3.78-1.84-8.6ZM270.75,842.98l-.14-10.35-5.29-8.56-10.4-3.31-5.06,8.7,5.25,5.11,6.9-.09,8.75,8.51ZM403.38,696.2l-7-6.81-6.9.09-5.11,5.25,19.01,1.47ZM367.44,719.12l-8.56,5.3-3.36,6.95,1.75,1.7,3.45-.05,5.11-5.25,1.61-8.65ZM614.67,496.56l-1.7,1.75-1.75-1.7,3.45-.04ZM542.19,623.54l11.87-15.69-27.89-20.33.19,13.81,15.55,1.51,1.75,1.7-1.47,19ZM256,900.14l1.66-5.2-3.55-6.86-1.79-5.15-3.4,3.5.19,13.8,6.9-.09ZM582.76,560.86l-5.2-1.65-6.86,3.54-1.65,5.2,3.59,10.3,34.56,2.98-.05-3.45-24.39-16.92ZM583.7,629.88l11.77-22.6-14.13-23.97-13.81.19-6.76,10.45,19.24,18.72,3.69,17.21ZM510.13,677.48l-3.59-10.3-8.75-8.51-8.56,5.29,20.9,13.52ZM521.09,722.21l-7.04-10.26,13.62-13.99,3.26-13.85-34.42,7.37.09,6.9,7,6.81,3.64,13.76,13.85,3.26ZM541.05,666.71l-7-6.81-8.55,5.29,8.75,8.51,6.9-.09-.1-6.9ZM620.91,574.15l5.81,46.52,12.05-1.89,10.07-20.85-14.09-20.52-13.85-3.26ZM675.79,675.23l3.31-10.4-3.55-6.85-8.6,1.84-6.95-3.35,21.89-40-3.59-10.31,13.52-20.9-41.74-23.59,3.68,17.21,8.75,8.51,9.07,32.67-59.95,33.61-22.5-4.87,5.58,29.26,27.56-3.83-1.89-12.05,13.71-7.09,15.83,22.22,25.86-2.08ZM580.57,654.09l-1.84-8.6-6.9.09-3.31,10.4,5.29,8.56,6.76-10.45ZM620.8,693.24l-.09-6.9-13.85-3.26-13.71,7.09-32.9-8.18-5.11,5.25,3.64,13.76,6.9-.09,13.66-10.54,7,6.81,34.46-3.92ZM566.15,735.4l-3.73-20.66-10.45-6.76-10.35.14-3.31,10.4-1.75-1.7-10.21,10.5-8.6,1.84-3.35,6.95,5.25,5.11,41.42-.56,5.11-5.25ZM603.97,724.53l-.24-17.26-3.45.05-8.56,5.29-1.61,8.65-3.4,3.5.04,3.45-10.3,3.59.14,10.35,8.65,1.61,5.06-8.7,3.45-.05,10.21-10.5ZM698.01,659.39l-1.89-12.06-6.95-3.35-1.66,5.2,1.8,5.15,8.7,5.06ZM621.41,738.1l-1.66,5.2,3.55,6.85,5.2,1.66,8.51-8.75-1.8-5.16-6.95-3.35-6.85,3.55ZM639.66,810.34l3.36-6.95-7.04-10.26,18.58-29.59-37.96.51-3.55-6.85-6.9.09-3.35,6.95,8.7,5.06,1.84,8.6,7,6.81-6.77,10.45,5.3,8.56,20.8,6.62ZM687.89,676.79l1.79,5.15,6.95,3.36,8.6-1.84,5.11-5.25-12.2-8.46-10.26,7.04ZM679.18,797.72l1.65-5.2-1.8-5.15-6.95-3.36-10.26,7.04,1.8,5.16,6.95,3.35,8.6-1.84ZM753.22,784.63l-10.54-13.66-13.76,3.64-42.6,40.27.14,10.36,5.25,5.11,40.8-45.43,10.4,3.31,10.31-3.59ZM785.6,754.85l1.61-8.65-10.49-10.21-8.6,1.84-1.61,8.65,5.3,8.56,6.95,3.36,6.85-3.55ZM766.17,848.31l-10.64-20.57-.28-20.7-15.22,22.64,19.29,22.17,6.86-3.54ZM719.92,874.83l-.04-3.45-3.5-3.4-8.56,5.3,1.8,5.15,5.2,1.65,5.11-5.25ZM805.36,811.53l5.16-1.8-.05-3.45-1.75-1.7-5.2-1.66-6.86,3.55,8.7,5.06ZM737.74,916.01l-3.59-10.31-12.15-5.01,10.59,17.11,3.45-.05,1.7-1.75ZM860.11,776.27l-3.36,6.95,3.59,10.31,5.15-1.8,1.66-5.2-.09-6.9-3.5-3.4-3.45.05ZM780.53,889.54l5.06-8.7-1.8-5.16-3.45.05-5.06,8.7,1.8,5.16,3.45-.05Z"/>
</svg>