<?xml version="1.0" encoding="UTF-8"?>
<svg xmlns="http://www.w3.org/2000/svg" viewBox="0 0 1000 1000">
  <defs>
    <style>
      .cls-1 {
        stroke-width: 6.26px;
      }

      .cls-1, .cls-2, .cls-3, .cls-4, .cls-5, .cls-6, .cls-7, .cls-8, .cls-9, .cls-10, .cls-11, .cls-12 {
        stroke-miterlimit: 10;
      }

      .cls-1, .cls-3, .cls-4, .cls-5, .cls-6, .cls-7, .cls-9, .cls-10 {
        stroke: #000;
      }

      .cls-1, .cls-4, .cls-13 {
        fill: red;
      }

      .cls-2 {
        stroke-dasharray: 0 0 2.76 2.76;
      }

      .cls-2, .cls-3, .cls-4, .cls-10, .cls-11, .cls-12 {
        stroke-width: 6.71px;
      }

      .cls-2, .cls-8, .cls-10, .cls-11, .cls-12 {
        fill: none;
      }

      .cls-2, .cls-11 {
        stroke: red;
      }

      .cls-3, .cls-14 {
        fill: #fff;
      }

      .cls-5 {
        stroke-width: 4.03px;
      }

      .cls-5, .cls-7, .cls-9, .cls-15 {
        fill: #cfc;
      }

      .cls-6 {
        fill: #96bd96;
      }

      .cls-6, .cls-7 {
        stroke-width: 5.37px;
      }

      .cls-16 {
        mix-blend-mode: hard-light;
      }

      .cls-8 {
        stroke: #00e59d;
        stroke-linecap: square;
        stroke-width: 7.21px;
      }

      .cls-9 {
        stroke-width: 4.7px;
      }

      .cls-17, .cls-15, .cls-14, .cls-13, .cls-18 {
        stroke-width: 0px;
      }

      .cls-19 {
        isolation: isolate;
      }

      .cls-12 {
        stroke: #39b54a;
        stroke-dasharray: 0 2.68;
      }

      .cls-18 {
        fill: #00e59d;
      }
    </style>
  </defs>
  <g class="cls-19">
    <g id="Layer_1" data-name="Layer 1">
      <g>
        <g>
          <g>
            <rect class="cls-7" x="221.04" y="357.29" width="13.42" height="110.07" transform="translate(-224.85 281.81) rotate(-45)"/>
            <circle class="cls-7" cx="275.21" cy="459.79" r="14.77"/>
          </g>
          <rect class="cls-17" x="341.41" y="356.43" width="45.64" height="201.35" transform="translate(728.45 914.2) rotate(-180)"/>
          <g>
            <g>
              <rect class="cls-9" x="132.11" y="340.83" width="13.42" height="18.79" rx="2.68" ry="2.68" transform="translate(484.63 499.71) rotate(135)"/>
              <rect class="cls-5" x="150.13" y="359.31" width="8.73" height="12.22" rx="1.75" ry="1.75" transform="translate(522.12 514.57) rotate(135)"/>
              <rect class="cls-5" x="160.93" y="370.49" width="8.73" height="12.22" rx="1.75" ry="1.75" transform="translate(548.47 526.01) rotate(135)"/>
            </g>
            <g>
              <rect class="cls-9" x="145.06" y="325.09" width="13.42" height="18.79" rx="2.68" ry="2.68" transform="translate(495.6 463.69) rotate(135)"/>
              <rect class="cls-5" x="163.08" y="343.57" width="8.73" height="12.22" rx="1.75" ry="1.75" transform="translate(533.1 478.55) rotate(135)"/>
              <rect class="cls-5" x="174.66" y="354.75" width="8.73" height="12.22" rx="1.75" ry="1.75" transform="translate(560.77 489.43) rotate(135)"/>
            </g>
            <rect class="cls-9" x="193.75" y="313.47" width="13.42" height="18.79" rx="2.68" ry="2.68"/>
            <rect class="cls-5" x="196.1" y="294.68" width="8.73" height="12.22" rx="1.75" ry="1.75"/>
            <g>
              <rect class="cls-9" x="156.57" y="308.98" width="13.42" height="18.79" rx="2.68" ry="2.68" transform="translate(503.87 428.05) rotate(135)"/>
              <rect class="cls-5" x="173.75" y="327.47" width="8.73" height="12.22" rx="1.75" ry="1.75" transform="translate(539.93 443.5) rotate(135)"/>
              <rect class="cls-5" x="185.4" y="338.64" width="8.73" height="12.22" rx="1.75" ry="1.75" transform="translate(567.71 454.34) rotate(135)"/>
            </g>
          </g>
          <rect class="cls-17" x="263.48" y="369.78" width="45.64" height="201.35" transform="translate(821.4 600.67) rotate(135)"/>
        </g>
        <g>
          <g>
            <rect class="cls-7" x="765.53" y="357.29" width="13.42" height="110.07" transform="translate(1026.75 1249.95) rotate(-135)"/>
            <circle class="cls-7" cx="724.79" cy="459.79" r="14.77"/>
          </g>
          <rect class="cls-17" x="612.95" y="356.43" width="45.64" height="201.35"/>
          <rect class="cls-17" x="690.88" y="369.78" width="45.64" height="201.35" transform="translate(541.7 -366.87) rotate(45)"/>
          <g>
            <g>
              <rect class="cls-9" x="854.47" y="340.83" width="13.42" height="18.79" rx="2.68" ry="2.68" transform="translate(499.88 -506.37) rotate(45)"/>
              <rect class="cls-5" x="841.15" y="359.31" width="8.73" height="12.22" rx="1.75" ry="1.75" transform="translate(506.04 -490.84) rotate(45)"/>
              <rect class="cls-5" x="830.34" y="370.49" width="8.73" height="12.22" rx="1.75" ry="1.75" transform="translate(510.77 -479.92) rotate(45)"/>
            </g>
            <g>
              <rect class="cls-9" x="841.52" y="325.09" width="13.42" height="18.79" rx="2.68" ry="2.68" transform="translate(484.96 -501.82) rotate(45)"/>
              <rect class="cls-5" x="828.2" y="343.57" width="8.73" height="12.22" rx="1.75" ry="1.75" transform="translate(491.11 -486.29) rotate(45)"/>
              <rect class="cls-5" x="816.62" y="354.75" width="8.73" height="12.22" rx="1.75" ry="1.75" transform="translate(495.62 -474.83) rotate(45)"/>
            </g>
            <rect class="cls-9" x="792.82" y="313.47" width="13.42" height="18.79" rx="2.68" ry="2.68" transform="translate(1599.07 645.74) rotate(-180)"/>
            <rect class="cls-5" x="795.17" y="294.68" width="8.73" height="12.22" rx="1.75" ry="1.75" transform="translate(1599.07 601.58) rotate(-180)"/>
            <g>
              <rect class="cls-9" x="830" y="308.98" width="13.42" height="18.79" rx="2.68" ry="2.68" transform="translate(470.2 -498.4) rotate(45)"/>
              <rect class="cls-5" x="817.53" y="327.47" width="8.73" height="12.22" rx="1.75" ry="1.75" transform="translate(476.6 -483.46) rotate(45)"/>
              <rect class="cls-5" x="805.88" y="338.64" width="8.73" height="12.22" rx="1.75" ry="1.75" transform="translate(481.09 -471.95) rotate(45)"/>
            </g>
          </g>
          <line class="cls-8" x1="819.85" y1="305.73" x2="747.8" y2="89.55"/>
        </g>
        <g>
          <g>
            <rect class="cls-7" x="504.42" y="845.03" width="13.42" height="110.07"/>
            <circle class="cls-7" cx="511.13" cy="832.95" r="14.77"/>
          </g>
          <rect class="cls-17" x="488.31" y="581.94" width="45.64" height="330.21"/>
          <g>
            <path class="cls-3" d="M488.31,941.68h84.89c16.86,0,30.55,13.69,30.55,30.55v17.77h-112.31c-1.73,0-3.13-1.4-3.13-3.13v-45.2h0Z"/>
            <line class="cls-10" x1="563.48" y1="941.68" x2="516.5" y2="988.66"/>
            <line class="cls-10" x1="579.59" y1="941.68" x2="532.61" y2="988.66"/>
            <line class="cls-10" x1="547.37" y1="941.68" x2="500.39" y2="988.66"/>
          </g>
          <g>
            <rect class="cls-7" x="487.75" y="845.03" width="13.42" height="110.07" transform="translate(988.92 1800.13) rotate(-180)"/>
            <circle class="cls-7" cx="494.46" cy="832.95" r="14.77"/>
          </g>
          <rect class="cls-17" x="471.64" y="581.94" width="45.64" height="330.21" transform="translate(988.92 1494.08) rotate(-180)"/>
          <g>
            <path class="cls-3" d="M404.97,941.68h112.31v17.77c0,16.86-13.69,30.55-30.55,30.55h-84.89v-45.2c0-1.73,1.4-3.13,3.13-3.13Z" transform="translate(919.12 1931.68) rotate(-180)"/>
            <line class="cls-10" x1="442.11" y1="941.68" x2="489.09" y2="988.66"/>
            <line class="cls-10" x1="426" y1="941.68" x2="472.98" y2="988.66"/>
            <line class="cls-10" x1="458.22" y1="941.68" x2="505.2" y2="988.66"/>
          </g>
        </g>
        <g>
          <g>
            <rect class="cls-7" x="492.15" y="329.58" width="13.42" height="110.07" transform="translate(997.71 769.23) rotate(180)"/>
            <circle class="cls-7" cx="498.86" cy="451.73" r="14.77"/>
          </g>
          <polygon class="cls-17" points="615.64 753.75 382.08 753.75 382.08 361.8 497.51 377.9 615.64 356.43 615.64 753.75"/>
          <path class="cls-4" d="M497.51,431.6c-61.8,0-112.08-50.28-112.08-112.08h46.98c0,35.9,29.2,65.1,65.1,65.1s65.1-29.2,65.1-65.1h46.98c0,61.8-50.28,112.08-112.08,112.08Z"/>
          <polygon class="cls-14" points="554.41 227.56 532.41 227.56 532.41 375.22 673.04 350.09 554.41 227.56"/>
          <rect class="cls-1" x="462.61" y="369.85" width="69.8" height="85.91"/>
          <polygon class="cls-14" points="440.62 240.99 462.61 240.99 462.61 388.64 316.67 363.51 440.62 240.99"/>
          <polygon class="cls-10" points="554.41 227.56 532.41 227.56 532.41 375.22 673.04 350.09 554.41 227.56"/>
          <polygon class="cls-10" points="440.62 240.99 462.61 240.99 462.61 388.64 316.67 363.51 440.62 240.99"/>
          <polygon class="cls-17" points="615.64 753.75 382.08 753.75 433.08 461.13 615.64 356.43 615.64 753.75"/>
        </g>
        <g>
          <g>
            <path class="cls-15" d="M513.62,261.74l35.89-1.99c21.44-1.19,35.81-22.52,28.86-42.83l-25.28-73.89c-5.5-16.08-20.62-26.89-37.62-26.89h-53.08c-13.87,0-26.19,8.84-30.64,21.97l-32.21,95.08c-5.58,16.46,6.67,33.54,24.05,33.54l33.65-1.86"/>
            <path class="cls-15" d="M538.15,260.38l5.29,81.04c.6,6.44-1.64,12.83-6.19,17.41-4.2,4.22-9.95,7.72-15.95,10.16-6.01,2.44-12.28,3.83-17.54,3.83-16.09,0-30.34-10.36-35.32-25.65l-25.55-81.51"/>
            <path class="cls-10" d="M513.62,261.74l35.89-1.99c21.44-1.19,35.81-22.52,28.86-42.83l-25.28-73.89c-5.5-16.08-20.62-26.89-37.62-26.89h-53.08c-13.87,0-26.19,8.84-30.64,21.97l-32.21,95.08c-5.58,16.46,6.67,33.54,24.05,33.54l33.65-1.86"/>
            <path class="cls-10" d="M538.15,260.38l5.29,81.04c.6,6.44-1.64,12.83-6.19,17.41-4.2,4.22-9.95,7.72-15.95,10.16-6.01,2.44-12.28,3.83-17.54,3.83-16.09,0-30.34-10.36-35.32-25.65l-25.55-81.51"/>
            <path class="cls-17" d="M532.21,231.48l8.54-2.77c10.18-3.31,11.19-15.66,10.1-25.94-.48-4.58-2.09-8.97-4.62-12.82l-14.97-22.76c-5.66-8.76-16.76-13.47-28.24-11.96h0c-9.64,1.27-16.65,9.2-15.71,17.76l3.96,36.06c1.95,17.73,21.84,28.63,40.92,22.43Z"/>
            <g>
              <rect class="cls-17" x="481.86" y="241.13" width="13.42" height="32.22" rx="6.71" ry="6.71" transform="translate(-35.86 430) rotate(-46)"/>
              <rect class="cls-17" x="472.96" y="243.69" width="13.42" height="32.22" rx="6.71" ry="6.71" transform="translate(77.1 -108.33) rotate(14)"/>
            </g>
            <path class="cls-17" d="M441.67,234.58l13.06,1.57c11.12,1.33,21.12-6.84,22.03-18l4.15-50.83c.43-5.25-3.33-9.92-8.55-10.63l-8.56-1.16c-12.41-1.69-24.44,5-29.56,16.42l-12.38,27.63c-6.89,15.36,3.09,33,19.81,35Z"/>
            <path class="cls-14" d="M516.92,184.34h0c12.55,0,22.74,10.19,22.74,22.74v3.05c0,8.74-7.1,15.84-15.84,15.84h-10.41c-6.85,0-12.41-5.56-12.41-12.41v-13.3c0-8.79,7.13-15.92,15.92-15.92Z" transform="translate(-27.72 93.47) rotate(-10)"/>
            <g>
              <circle class="cls-17" cx="520" cy="209.23" r="11.75"/>
              <circle class="cls-14" cx="511.61" cy="211.58" r="2.01"/>
              <circle class="cls-14" cx="520" cy="209.23" r="5.37"/>
            </g>
            <path class="cls-17" d="M486.85,305.59h10.74v11.41c0,1.11-.9,2.01-2.01,2.01h-4.7c-2.22,0-4.03-1.8-4.03-4.03v-9.4h0Z" transform="translate(-29.95 53.16) rotate(-6)"/>
            <path class="cls-17" d="M505.21,303.38h4.7c1.11,0,2.01.9,2.01,2.01v11.41h-10.74v-9.4c0-2.22,1.8-4.03,4.03-4.03Z" transform="translate(1055.38 537.13) rotate(171)"/>
            <path class="cls-17" d="M523.15,300.32h3.9c.92,0,1.67.75,1.67,1.67v9.47h-8.92v-7.8c0-1.85,1.5-3.34,3.34-3.34Z" transform="translate(1089.93 526.01) rotate(171)"/>
            <circle class="cls-17" cx="507.65" cy="358.06" r="6.71"/>
            <path class="cls-6" d="M379.81,82.85c-14.47,9.26-30.44,63.56-30.44,63.56l21.71-13.05-22.22,42.57,27.03-10.27-59.94,49.97s19.08,2.09,34.01-6.71c14.93-8.8-29.34,47.06-29.34,47.06l29.57-2.17-20.41,34.55s50.09-15.45,58.66-28.3c26.85-40.27,32.22-139.6,60.67-147.9,22.22-6.48,76.26-2.93,76.26-2.93,0,0-91.18-61.18-145.55-26.39Z"/>
            <path class="cls-6" d="M457.69,113.45c-28.11-3.45-52.61-48.07-31.42-71.48,21.18-23.41,37.48-30.56,37.48-30.56-7.28,7.08-15.5,30.22-8.42,36.69l2.41,2.2s23.75-25.83,27.9-38.33c3.03-9.12-2.75,25.16-2.75,25.16l35.45-27.13-11.07,20.37,30.31-15.27-4.54,18.43,32.49-11.75-7.9,24.52,40.22-10.8-24.92,16.36s13.84-8.49,35.85,3.97c22.01,12.46,38.33,48.51,44.07,67.19,9.34,30.41,56.77,91.51,56.77,91.51l-38.87-10.84,10.96,46.43-28.17-26.22,6.98,49.63-29.57-36.15-11.05,47.42-17.47-28.16-10.27,41.01-24.28-100.53-10.5-50.45c-7.36-24.6-15.02-25.54-45.08-29.06,0,0-38.84-2.24-54.6-4.17Z"/>
            <path class="cls-13" d="M467.1,221.92l-1.01,1.01-.95,1.07-1.07.95-.47.36-.83.59-.77.06-.53-.18-.83-.59-1.19-.95-1.3-1.42-.83-.95-1.25-1.48-1.19-1.19-.71-.47-.59-.24-.59.12-.95.59-.53.53-.95.83-2.49,2.85-1.01.89-.53.53-.95.71-.89.06-1.01-.53-1.24-1.24-1.48-1.6-.89-1.01-1.42-1.19-.89-1.01-.3-.53-.59-.95-.06-.89.71-.95.95-1.07.89-1.01,2.55-2.19.83-.95.36-.36.59-1.07-.06-.89-.65-.77-3.91-3.91-.89-1.01-.53-.53-.65-1.13-.18-.89.65-.89.47-.59,1.07-.95,1.01-.77,1.01-.89,1.36-1.6,1.13-.89,1.01-.65.89-.06.89.65,1.48,1.48,1.84,2.07,2.07,1.84.83.59.53.3.71-.12.77-.53.89-.77.83-.95,2.31-2.55,1.48-1.48.89-.65.71-.24.53.06.65.53.47.36.83.95,1.3,1.66.95.95,1.48,1.24,1.36,1.36.53.77.18.65-.18.65-.59.83-2.02,2.02-1.01.89-1.48,1.24-.77.89-.47.47-.47.83-.18.65.18.53.53.77,1.42,1.42,3.26,2.9.89,1.01.41.53.65.89.06,1.01-.53,1.13-1.01,1.01-1.54,1.42ZM443.09,197.31l.41.77.06-.53-.18-.3-.3.06ZM440.43,200.46v-.12s-.3-.06-.3-.06v.12s.18.18.18.18l.12-.12ZM441.97,199.86v-.24h-.24l-.12.12.06.06v.12l.18.06.12-.12ZM442.86,199.21v-.12h-.24l-.06.06v.12h.24l.06-.06ZM442.38,199.92v.36s.24.24.24.24l1.54-.59-1.48-.3-.3.3ZM441.61,201.29l.12-.36-.06-.06-.18-.06-.24.24v.36s.36-.12.36-.12ZM444.22,198.32v.24l.24.12.24-.24-.3-.18-.18.06ZM444.4,199.33l-.3-.3-.3-.06.06.53.41.06.12-.24ZM442.92,202l.59.12-.3-.41-.47-.36-.06-.3-.41-.3.3.65h.12s.24.59.24.59ZM442.2,201.88l-.18-.18-.36.12.06.3.18.06.3-.3ZM443.69,200.63l.06.42h.47l-.06.53.36-.47-.83-.47ZM444.93,199.86l-.06.3,1.07.24v-.12l-.83-.47-.18.06ZM445.35,201.7l.36-.59-.36-.59h-.12l-.06-.06-.3-.06-.18.3.65,1.01ZM442.8,202.71l.53.41-.12-.36-.18-.18-.24.12ZM446.29,200.16l-.06.65.3.65.3-.06.24-.59-.36-.59-.41-.06ZM443.98,202.59h-.12s-.06.18-.06.18l.18.18.24-.12-.24-.24ZM443.75,204.25l-.3-.18.47-.83-.95.24.36.71.41.06ZM447.07,199.86l.53,1.01.12.59-.53.53-1.66.24-.12.36.24.47.77-.18-.06-.3.3-.18.53.53.65-.06.12-.24-.12-.24-.24.12-.18-.18.59-1.07-.06-.3.3-.53-1.19-.59ZM445.23,202.18h-.24l-.06.3.18.18.12-.47ZM444.99,203.48l.3-.06.12.12,1.01-.06v-.24s-1.66-.12-1.66-.12l-.18.41.12.12h.24s.06-.18.06-.18ZM444.93,204.61l-.12-.24.06-.3-.3-.18h-.36s-.65.77-.65.77l.12.12h1.07s.18-.18.18-.18ZM445.58,203.95l-.06.41-.3.18v.24s.24,0,.24,0l.47-.47v-.47s-.36.12-.36.12ZM451.93,214.57l.12-.71.41-.3-.3-.3-.41.18.06.06-.24-.12-.06-.53.18-.06.12-.47-.24-.12-.3.18-.12-.12.06-.06-.24-.24.18-.18-.06-.18.65-.65.3.18.12-.12v-.24l-.18-.06.12-.12-.06-.41-.3.06-.3.3-.18-.18v-.24l.3-.18v-.36l-.3-.3.24-.36-.18.3.59.59.12-.12-.06-.3-.24-.24v-.59l.36-.47h.36l.36-.24.3.06v.47s-.06.06-.06.06h-.12v.12l.06.06.3-.06.18.3-.59,1.3.18-.06-.06.06-.06.18.3-.06.06-.06v-.12l-.06-.06h-.12l.59-.47h.24l.65.41.06.65.41.06.06-.18h.24l.12.12.53-.18-.06-.3-2.13-1.19-.12-.71.47-.95-.12-.36-.41-.06-.36.24-.53-1.25-.59.36-.53-.53h-.12l.06-.18.41-.18.24-.47-.06-.06v-.12l-.12-.12.47-.12-.3-.18-.3.18-.36-.47-.59-.71.06-.89-.3-.3.24-.36-.36-.12-.3.18h-.12l-.24-.24-.12-.47-.24.36.18.77-1.07.36.18.18,1.19.12.24.24-2.37-.12-.12.36-.65.53.3,1.13.77-.06.36.24-1.07.36.06.3-.36.59-1.01.53-.3-.06-.47-.47.06-.3.3-.06.18-.18v-.24s-.83.12-.83.12v-.59l-.06-.06-.42.06-.18.18h-.24s-.12.24-.12.24l1.9,2.02.18-.18.47-.12-.12.36.36,1.19.36-.24-.24-.83.12-.24-.06-.53.65-.77.53.06.24-.36.12.12.59-.47.18-.53-.12-.36-.3-.06-.06-.06.41-.89.53-.18.24.47-.18.3h-.24l-.12.12,1.9.24.06-.06.12.24-.24.12-.18.3.06.06-.24.24v.24s-.12.12-.12.12h-.95l-.53.41.3.3.12.47.3.18.3-.06.24-.24v-.12l.3.06.24-.24-.12-.59.3-.18.06-.18.36.71-.06.65-.41.41h-1.19l-.24.36.36.47.3.06-.47.12-.53-.53-.36.12-.24.36-.36.12-.12-.24.41-.89-1.07.12-.06-.18h-.24l-.06.18.24.12.18.41-.06.3.12.24.18.06-.06,1.01,1.01-1.13.89.18-.12.12v.12s-.41-.06-.41-.06l-.59.59.24.59-.06.18-.36.24-.12.36.47.12.41-.41h.12l.24.36-.06.41-.47.24.3.18.41-.18.18.41-.3.41-.06-.06-.18.06-.36-.12-.36.12-.3-.3-.3.18.12.24.3.18-.24,1.07-.41-.06-.18.41.89-.41.06-.53.18-.06-.06-.3-.24-.12.24-.24.36.12.3-.18-.36.47.06.77.18.18.18-.18.06-.41.12-.12.3.18.18-.18-.06-.3.18-.06.18.06.06.53-.18.06-.3.53-.77.3-.24.36.65-.18.41.53.71-.12.12-.24.3-.06v.24h.24s.24-.24.24-.24ZM448.19,202.06l-.06.18.18.18h.12l-.12-.36h-.12ZM446.35,204.84l.06.18.18.06.24-.24v-.24l-.18-.06-.24.12-.06.18ZM449.85,205.26l.24.12.24-.12.06-.18-.3-.18-.3.18.06.18ZM456.67,199.51l-.18.3.06.3.65-.42-.12-.24-.41.06ZM457.44,199.09l-.06.18.18.18h.12s.12-.12.12-.12l-.24-.24h-.12ZM459.81,207.51l.12-.12.41-.06.18-.18-1.13-.06-.47-1.07-.24,1.42-.24.24-.24-1.3.36-.71-.06-.41-.83-.83-1.13.3v.83l-.24.36-.36-1.07-.89-.42-.65-1.01.18-.18-.06-.18.18-.3.65-.06-.06.3.24.24.3-.06-.12-.83.65-.06-.06-.41-.18-.18v-.24s-.3-.18-.3-.18l-.18.3-.24.12-.77.41-.3.77-.59.36.18.18.12.47-.06.06-.3-.18-1.19.36.24.36,1.66-.12.59.47.12.71.41.3-.12.12.47.59.53.18.36-.12.06-.3.06-.06.95.47.12.47-.47.36-.24-.24v-.24l-.24-.12-.24,1.66.47.47.12-.12h.12l.77-.65.47.12.77-.3.18.18h.12l.12-.36-.18-.3.06-.06v-.12ZM446,212.08l.77.53h.12l.06-.06.71.95.18.06.18-.06-.65-1.72.12-.36-.41-.3-.41.41.24.12.24-.12.06.06-.47.24-.06-.06-.12.12v-.12s-.06.06-.06.06l-.3-.06-.18-.18.06-.18-.18-.06-.18.06-.24.83.3.06.24-.24ZM459.57,197.91v.12s.12.12.12.12l.18.06.06-.06v-.12l-.06-.06-.3-.06ZM456.73,200.75v1.19l.18.18.77-.41-.06-.3-.83-.71-.06.06ZM458.09,200.1l-.77.3-.12.47.3-.3.36.36.47.12-.24-.95ZM453.7,204.84l-.3-.18-.59.36.06.18.24.12.53-.3.06-.18ZM460.64,197.43l.06.18.3-.06.3-.3.24.12.3-.06-.65-.41-.53.53ZM447.95,210.59l.41-.06-.18-.3-.24-.12v.47ZM459.93,199.09l-.18-.3h-.36v.12s.3.41.3.41l.24-.24ZM444.28,214.62l.41-.53-.3-.06-.06.06h-.12l-.3.18.06.3.3.06ZM460.7,198.68l.12-.12-.3-.3h-.36l.12.36.41.18v-.12ZM459.04,199.39l-.18.18v.24s.47-.47.47-.47l-.3.06ZM445.82,213.2l.06-.53-.71.59.12.24h.24l.3-.3ZM440.78,218.12l-.06-.3h-.12l-.12.24.18.18.12-.12ZM458.86,199.92l-.41.53.59-.36-.18-.18ZM447.66,211.96l.71-.36.24-.47-.36-.24-.47.36-.12.71ZM457.74,203.06l-.12-.24-.3-.06-.12-.12h-.12s-.06-.3-.06-.3l-.3.06-.06.3.89.53.18-.18ZM454.42,205.44l-.3.06-.18.18-.24-.12-.24.12-.24.59.24.12.24-.24.89.53-.06-1.13.18-.06v-.24s-.18-.06-.18-.06l-.12.24ZM442.62,217.23l-.06-.3-.47.12-.12.24.06.18h.24l.36-.24ZM450.8,208.58l.24.47-.24.12-.53-.06.53-.53ZM460.17,199.57v.12l-.59.24-.12.71,1.36-1.24-.65.18ZM444.1,215.51l.41.41h.24s.47.47.47.47l2.25-1.9.12-.59-1.48,1.6h-.36s-.3-.3-.3-.3l.18-.3-.47-.36-1.07.95ZM446.41,213.32l.06.18.3-.06.06-.18-.24-.24-.18.3ZM458.63,201.35h.12s.24-.24.24-.24v-.12s-.18-.06-.18-.06l-.24.24.06.18ZM458.39,201.94l-.36-.24-.18.18v.24l.18.06.12.24-.24.71.18.53h.12l.06-.06.12-1.66ZM456.97,203.84l-.06-.18-.18-.06-.24.12v.12s.24.24.24.24h.12s.12-.24.12-.24ZM441.55,218.89l.3.06.41-.41-.06-.06h-.12l-.12.12-.41.06v.24ZM451.75,208.58l-.24.36.24-.36ZM461.71,198.74l-.06.18.12.12h.24v-.24l-.12-.12-.06.06h-.12ZM462.42,198.14l.53.06.3-.18v-.12s-.12-.12-.12-.12l-.71.36ZM446.29,214.51l.24.12v-.12s-.18-.3-.18-.3l-.12.12.06.18ZM463.55,197.14l-.06.3h.24l.06-.3h-.24ZM441.85,218.83v.12l-.06-.06.06-.06ZM441.55,219.72l-.06-.18-.12-.12-.3.18.18.18h.24l.06-.06ZM461.71,199.45h-.36l-.24.24.59,1.66.3-1.6-.3-.3ZM444.46,216.94l.06-.18-.06-.06h-.24v.12s-.06.06-.06.06l.3.06ZM452.52,209.23l-.47.24.36.59.06.06.24-.24.12-1.54-.47.36.18.53ZM459.16,202.12l-.3.18.3.18.3-.18-.3-.18ZM460.64,201.35h-.59l.41.3.59-.83-.41.06v.47ZM460.46,204.96h-.24l-.59-.47-.06-.65-.36-.47.12-.71-.77.18.06.77h.36l.18.3-.53.53.06.65.3.18.18-.18-.12-.24.18-.18h.24l.89.65.3-.18.59.36.59-1.19-1.36.65ZM444.16,217.94l.47-.12.12-.24-.36-.24-.18.06-.18.3.12.24ZM462.36,199.63v.24h.12s.06.06.06.06l.06-.06v-.12s-.24-.12-.24-.12ZM455.6,209.23l.47.24.3.41.47.12.3-.18.12.47h.12l.06-.06v-.24s-.18-.3-.18-.3l.06-.06-.53-.18-.12-.24h-.24l-.06-.06-.06.06-.59-.24-.24-.36v-.71l-.47-.47-.18.3-.12-.12h-.12l-.06.3h-.24l-.12.71.41.18.3-.18-.06-.18.18-.18.47.95-.47-.12.3.53.24-.12.06-.3ZM443.8,218.89v-.12s-.18-.06-.18-.06l-.18.18v.12s.36-.12.36-.12ZM461.17,202l-.3-.18-.95.71.59.36.59-.36v-.12s.06-.06.06-.06v-.36ZM447.9,215.51l-.36-.47-.83.71.24.12.53-.41.41.06ZM449.02,215.45l-.12-.71-.77-.06.77.89.12-.12ZM452.58,210.83l.06-.41h-.12l-.18.3.24.12ZM462.12,201.05l-.06.18.06.18.18.06.36-.24.06-.3-.3-.06-.3.18ZM451.51,211.9l.47.12.36.71.18.06.12-.12.18.3.18.06.24.71.77.18-1.54-1.9.41-.18.06.06.95-.36-.18.53.83-.59v-.12s.41-.18.41-.18l-1.84-.41-.36-.36.06.53-.12.12-.06.3-1.13.53ZM445.52,217.77l.24.12.53-.3v-.47s-.36.47-.36.47h-.24l-.18.18ZM456.14,207.39l.12.24.12.12.3-.3-.12-.24-.3-.06-.12.24ZM461.89,202.23l-.3-.18h-.12s-.12.12-.12.12l-.06.89.06.06h.12s.41-.89.41-.89ZM443.09,221.03l.06-.18-.06-.06-.3-.06v.24l.3.06ZM461.41,203.89l.12-.36-.47-.12-.89.3.12.36.59.24.53-.41ZM453.53,210.59l.3-.06.18-.18-.18-.18-.3.18v.24ZM448.07,216.4v-.12l-.06-.06-.3-.06-.18.18.24.12.3-.06ZM463.13,201.35l-.12.24.24.24.12-.12.06-.41-.3.06ZM457.91,206.68l-.06.06v-.12l.06.06ZM459.51,205.55l.06-.06-.18-.06-.3.3.41-.06v-.12ZM447.48,217.47l-.3.18.24.24.47.12.47-.36-.83.12-.06-.3ZM445.46,220.67v-.36l-.18-.3-.36-.12-.18.3.18.18h.24l.3.3ZM450.09,215.69l-.24-.24h-.24l-.18.18.65.06ZM448.84,216.46l-.3.18-.12.24.06.06h.12s.18-.18.18-.18l.06-.3ZM457.44,208.93l-.06.06-.06-.06h.12ZM454.89,213.26l.41-.53-.95-.71v.47l.53.06.06.06-.06.65ZM444.93,222.63l.06-.18-.12-.24-.06-.18-.12.12v.47h.24ZM456.31,211.13l-.18-.06-.24.12-.06.18.12.36,1.19.12v-.12l-.83-.59ZM456.31,213.5l.41-.77-.47-.83h-.47l-.24.36.65.65.12.59ZM453.76,215.1l-.12-.36-.3-.3-.3.18.71.47ZM454.12,216.64l-.24-.36.47-.47.12-.47-1.19.24v.24l.24.24.12.47.47.12ZM454.83,214.74l-.24-.24-.3.18.3.3h.24v-.24ZM457.62,211.6l.18,1.6.41-.06.36-.71-.47-.71-.47-.12ZM459.46,215.1l.12-.36-.12-.24-.3.06-.24-.12.77-1.36-.12-.36.47-.71-1.42-.83.12.59.3.3.3,1.13-2.07,1.13-.77-.18.18,1.01.95-.12-.06-.41.47-.24.53.77.89-.06ZM456.19,214.33l-.06-.3h-.24l-.12.36.18.3.24-.36ZM457.56,215.69v-.24s-.47-.12-.47-.12l-.47.24-1.13-.3-.18.18.12.47h.24l.47-.36.24.24,1.19-.12ZM455.66,217.11l-.12-.71-.36-.24h-.36l-.12.36-.06-.06-.36.36-.3.06-.12.24.18.18h1.42l.18-.18ZM456.97,216.76v-.59h-.12s-.3.18-.3.18l-.06.3-.12.12v.12s-.36.12-.36.12v.36l.3.06.18-.3h.12l.36-.36ZM460.23,214.57l-.06-.42-.24-.12-.06.18.06.18.3.18ZM457.56,217.23l-.06.18.12.24.18.06.3-.3-.06-.18-.24-.12-.24.12ZM458.15,219.72l.12-.24-.24-.36.65-1.01h-1.3s-.12-.24-.12-.24h-.24l-.12.24.3.18.06.3.24.24-.24.36.18.3.71.24ZM459.87,215.16l.06.18.24.12.3-.06.18-.18-.41-.3-.36.24ZM459.51,219.31l.06-.18-.06-.18-.24-.12-.36.24.06.18.24.12.3-.06ZM462.06,218.89l-.36-.47-.47.12-1.48,1.36v.36l.18.18,1.42-1.54.36.12.36-.12ZM463.19,217.89l.06-.3-.36-.36-.3.06-.06.3.18.3.24.12.24-.12ZM462.48,221.09l-.36-.71v-.71l-.53.77.65.77.24-.12ZM460.88,221.98v-.12s-.12-.12-.12-.12l-.3.18.06.18.18.06.18-.18ZM463.84,219.84l.18-.06v-.12s-.06-.06-.06-.06l-.18-.06-.24.12.3.18ZM461.47,223.4l-.12-.36-.41-.18.36.59h.12l.06-.06ZM465.74,218.66l-.12.24.12.36.18-.06.06-.18v-.24l-.12-.12h-.12ZM462.95,222.51l.18-.3-.06-.18h-.12s-.18.3-.18.3l.06.18h.12Z"/>
            <g class="cls-16">
              <path class="cls-18" d="M379.81,82.85c-14.47,9.26-30.44,63.56-30.44,63.56l21.71-13.05-22.22,42.57,27.03-10.27-59.94,49.97s19.08,2.09,34.01-6.71c14.93-8.8-29.34,47.06-29.34,47.06l29.57-2.17-20.41,34.55s50.09-15.45,58.66-28.3c26.85-40.27,32.22-139.6,60.67-147.9,22.22-6.48,76.26-2.93,76.26-2.93,0,0-91.18-61.18-145.55-26.39Z"/>
            </g>
          </g>
          <path class="cls-12" d="M536.94,241.16l10.76-3.49c12.82-4.16,14.09-19.72,12.72-32.66-.61-5.77-2.63-11.3-5.82-16.15l-18.84-28.66c-7.12-11.04-21.1-16.96-35.56-15.06h0"/>
          <g>
            <path class="cls-11" d="M416.98,225.78c.22.39.45.77.69,1.15"/>
            <path class="cls-2" d="M419.22,229.19c4.69,6.18,11.79,10.62,20.35,11.64l13.03,1.56"/>
            <line class="cls-11" x1="453.98" y1="242.57" x2="455.31" y2="242.73"/>
          </g>
          <polyline class="cls-10" points="537.78 300.08 470.67 305.86 467.98 305.45 465.3 294.72"/>
          <g class="cls-16">
            <path class="cls-18" d="M457.69,113.45c-28.11-3.45-52.61-48.07-31.42-71.48,21.18-23.41,37.48-30.56,37.48-30.56-7.28,7.08-15.5,30.22-8.42,36.69l2.41,2.2s23.75-25.83,27.9-38.33c3.03-9.12-2.75,25.16-2.75,25.16l35.45-27.13-11.07,20.37,30.31-15.27-4.54,18.43,32.49-11.75-7.9,24.52,40.22-10.8-24.92,16.36s13.84-8.49,35.85,3.97c22.01,12.46,38.33,48.51,44.07,67.19,9.34,30.41,56.77,91.51,56.77,91.51l-38.87-10.84,10.96,46.43-28.17-26.22,6.98,49.63-29.57-36.15-11.05,47.42-17.47-28.16-10.27,41.01-24.28-100.53-10.5-50.45c-7.36-24.6-15.02-25.54-45.08-29.06,0,0-38.84-2.24-54.6-4.17Z"/>
          </g>
        </g>
      </g>
    </g>
  </g>
</svg>